# xmcd
#
# Track frame offsets: 
#        150
#        18783
#        37691
#        54191
#        72645
#        87862
#        108835
#        125392
#        142122
#        158738
#        179264
#        196694
#
# Disc length: 2983 seconds
#
# Revision: 0
# Processed by: cddbd v1.5.2PL0 Copyright (c) Steve Scherf et al.
# Submitted via: ExactAudioCopy v0.95a4
#
DISCID=900ba50c
DTITLE=Kara Grainger - Living With Your Ghost
DYEAR=2018
DGENRE=Blues
TTITLE0=Living With Your Ghost
TTITLE1=Working My Way Back Home
TTITLE2=Man With Soul
TTITLE3=Nowhere To Be Found
TTITLE4=You're In New Orleans
TTITLE5=Groove Train
TTITLE6=Reason To My Verse
TTITLE7=Broken Record
TTITLE8=Favorite Sin
TTITLE9=Nobody But You
TTITLE10=Love Will Get You Through The Door
TTITLE11=Freedom Song
EXTD=
EXTT0=
EXTT1=
EXTT2=
EXTT3=
EXTT4=
EXTT5=
EXTT6=
EXTT7=
EXTT8=
EXTT9=
EXTT10=
EXTT11=
PLAYORDER=
